# xmcd
#
# Track frame offsets:
# 150
# 13194
# 28568
# 44929
# 54527
# 66724
# 82818
# 93546
# 114838
# 126351
# 142575
# 156642
# 172228
#
# Disc length: 2448 seconds
#
#
# Revision: 1
# Processed by: cddbd v1.5.2PL0 Copyright (c) Steve Scherf et al.
# Submitted via: FreeRIP 2.53 
#
DISCID=bb098e0d
DTITLE=Mano Lima - Homem da Terra
DYEAR=1900
DGENRE=
TTITLE0=Essência Campeira
TTITLE1=Carão
TTITLE2=Tipo Emburrado
TTITLE3=Rebulução de 23
TTITLE4=Bororiano
TTITLE5=Marguiando em Brasília
TTITLE6=Crioulo de Pedra Ruim
TTITLE7=Atrás da Tropa
TTITLE8=Homem Minhoca
TTITLE9=Com Deus Emgarupado
TTITLE10=Rincão da Estiva
TTITLE11=Pianiceiro
TTITLE12=Nossa Senhora Sulina
EXTD=
EXTT0=
EXTT1=
EXTT2=
EXTT3=
EXTT4=
EXTT5=
EXTT6=
EXTT7=
EXTT8=
EXTT9=
EXTT10=
EXTT11=
EXTT12=
PLAYORDER=
